<svg height="512" viewBox="0 0 48 60" width="512" xmlns="http://www.w3.org/2000/svg"><g id="Page-1" fill="none" fill-rule="evenodd"><g id="078---Candle-With-Book" fill="rgb(0,0,0)" fill-rule="nonzero" transform="translate(0 -1)"><path id="Shape" d="m42.213 5.955c-.9862126-.07741838-1.9466879-.35290881-2.824-.81-.4044735-.27702161-.7842227-.58851631-1.135-.931-1.9928019-2.08391528-4.7608033-3.24775051-7.644-3.214-2.4398505-.11986285-4.8243001.75311265-6.61 2.42-1.7856999-1.66688735-4.1701495-2.53986285-6.61-2.42-2.8831967-.03375051-5.6511981 1.13008472-7.644 3.214-.3501937.34163408-.72890081.65276271-1.132.93-.87679003.4567737-1.83647868.73257366-2.822.811-1.02051658.09921142-1.79732797.95968609-1.792 1.985v.06h-2.04c-1.08202114.00110242-1.95889758.87797886-1.96 1.96v32.08c.00110242 1.0820211.87797886 1.9588976 1.96 1.96h7.04v5h-2.924c-.82760002-.0062685-1.5797834.4798604-1.914 1.237-.31329518.7047637-.16946976 1.528994.364 2.086 1.51264508 1.3757973 3.43654136 2.2147341 5.474 2.387v4.29h-1c-.55228475 0-1 .4477153-1 1s.44771525 1 1 1h10c.5522847 0 1-.4477153 1-1s-.4477153-1-1-1h-1v-4.29c2.0374586-.1722659 3.9613549-1.0112027 5.474-2.387.5334698-.557006.6772952-1.3812363.364-2.086-.3342166-.7571396-1.0864-1.2432685-1.914-1.237h-2.924v-3.772c1.3758221 1.2133005 3.1671923 1.8481621 5 1.772 2.487 0 4.673-.973 5.57-2.48.1483858-.2913279.4347056-.4872309.76-.52h15.71c1.0820211-.0011024 1.9588976-.8779789 1.96-1.96v-32.08c-.0011024-1.08202114-.8779789-1.95889758-1.96-1.96h-2.04v-.06c.0060439-1.0237556-.7682379-1.88382793-1.787-1.985zm-32.565.9c.5168791-.34015834 1.0000747-.72892487 1.443-1.161 1.6242513-1.74831966 3.912849-2.72712301 6.299-2.694 3.619 0 5.189 1.729 5.61 2.3v26.7c0 .5522847.4477153 1 1 1s1-.4477153 1-1v-26.7c.417-.57 1.982-2.3 5.61-2.3 2.3864975-.03340711 4.6755141.94541997 6.3 2.694.4434552.43258809.9273321.82169881 1.445 1.162 1.1245745.61526413 2.3669679.9847441 3.645 1.084v29.988c-.9132034-.0810059-1.8002861-.347437-2.607-.783-.4044735-.2770216-.7842227-.5885163-1.135-.931-1.9937551-2.0849381-4.7634184-3.2488631-7.648-3.214-2.4400812-.120171-4.8247678.753252-6.61 2.421-1.3666948-1.299283-3.1245475-2.1103562-5-2.307v-8.114c0-1.1045695-.8954305-2-2-2h-2v-2.1c2.0343537-.3770632 3.6221712-1.9752378 3.986-4.012.1708926-.8710014-.377888-1.7211252-1.242-1.924-1.245-.28-2.377-2.087-2.653-3.6-.0974871-.5282141-.4433796-.9771594-.9292679-1.2061276-.4858883-.22896813-1.0523081-.2099374-1.5217321.0511276-1.8134281.9232071-3.11657437 2.611791-3.55 4.6-.27378307 1.4780438.08339658 3.0032191.985 4.206.7139696.9567107 1.7552022 1.617048 2.925 1.855v2.13h-2c-1.1045695 0-2 .8954305-2 2v11.867c-.12418049.1025529-.25551332.1961233-.393.28-.80697212.4349406-1.69392404.7013324-2.607.783v-28.93l-.008-1.055c1.28171594-.10241827 2.52745603-.47382327 3.656-1.09zm4.059 12.129c-.8127685-.0830119-1.5519146-.5076664-2.033-1.168-.5656918-.7538958-.7894894-1.710386-.617-2.637.2676424-1.2587486 1.0546963-2.3458054 2.167-2.993.489 1.918 1.869 4.011 3.728 4.633-.4118588 1.4143226-1.7809481 2.327752-3.245 2.165zm-11.707 23.056-.04-32.04h2.04v27.93c.00136474.5685429.24463813 1.1096353.669 1.488.43367384.3846428 1.01163421.5645498 1.587.494.94498692-.1037509 1.86955992-.3460133 2.744-.719v2.812zm14 16.96h-4v-4.07c.637.042 1.3.07 2 .07s1.363-.028 2-.07zm6.015-8.044c-.715.764-2.707 2.044-8.015 2.044s-7.3-1.28-8.017-2.047l3.841.011c.05736905.0176453.11631004.0297014.176.036h8c.02 0 .037-.01.056-.011l3.868.011zm-11.015-1.956v-24h6v24zm35-39.04.04 32.04h-15.71c-1.0344492.0230097-1.9786381.594322-2.479 1.5-.445.746-1.91 1.5-3.851 1.5s-3.406-.756-3.85-1.5c-.2773533-.4699019-.6741166-.8580399-1.15-1.125v-7.24c1.6465062.1566581 3.1472195 1.0105687 4.123 2.346.1756648.3198371.5115974.5185981.8765.5185981s.7008352-.198761.8765-.5185981c.014-.024 1.416-2.481 5.734-2.481 2.3864975-.0334071 4.6755141.94542 6.3 2.694.441892.4310196.9237221.8190954 1.439 1.159 1.0489598.5870591 2.2091541.9481296 3.406 1.06.078002.0091468.1564637.0138211.235.014.4945429.0002432.9720104-.1808529 1.342-.509.4239911-.3785454.6668897-.919613.668-1.488v-27.943z"/><path id="Shape" d="m28.253 29.284c.7704595-.1941533 1.5624736-.2895848 2.357-.284 1.3638316-.0274461 2.7139037.276955 3.934.887.3179664.1629131.6986925.143818.9987626-.0500924s.4738963-.5331765.456-.89-.2247962-.6769945-.5427626-.8399076c-1.5016287-.7566111-3.1647871-1.136536-4.846-1.107-.9653028-.0060845-1.927427.1111985-2.863.349-.5343355.139728-.854228.6861645-.7145 1.2205s.6861645.854228 1.2205.7145z"/><path id="Shape" d="m28.253 24.284c.7704595-.1941533 1.5624736-.2895848 2.357-.284 2.433783-.0213393 4.7677187.9662482 6.447 2.728.441369.4159238.9178026.7929889 1.424 1.127.4722035.2866358 1.0873642.1362034 1.374-.336.2866357-.4722035.1362034-1.0873642-.336-1.374-.403065-.273403-.7830074-.5794306-1.136-.915-2.0462862-2.0854499-4.8513662-3.2510755-7.773-3.23-.9653028-.0060845-1.927427.1111985-2.863.349-.3456545.0903882-.6168308.3583148-.7113796.7028544-.0945488.3445397.0018943.7133486.253.9675.2511057.2541515.6187251.3550338.9643796.2646456z"/><path id="Shape" d="m27.748 17.349c-.514922.1541488-.815883.6877673-.6814108 1.2081746s.6562698.8414267 1.1814108.7268254c.2941175-.0764307.5922402-.1365226.893-.18.5464857-.0800813.9245813-.5880142.8445-1.1345-.0800813-.5464857-.5880143-.9245813-1.1345-.8445-.371507.0543213-.7397335.1291016-1.103.224z"/><path id="Shape" d="m39.519 21.145c-.403065-.273403-.7830074-.5794306-1.136-.915-1.4274982-1.4191177-3.2060296-2.4339917-5.154-2.941-.3477981-.0818138-.7128239.0281351-.9575758.2884302-.2447518.260295-.3320462.6313911-.229.9735s.3807777.603256.7285758.6850698c1.6259293.4321526 3.1060804 1.2927538 4.286 2.492.4411099.4162235.9175704.7933099 1.424 1.127.3054621.1854209.6866415.1937947.9999517.0219672s.5111519-.4977517.5190001-.855c.0078481-.3572484-.1754897-.6915464-.4809518-.8769672z"/><path id="Shape" d="m28.253 14.284c.7704595-.1941533 1.5624736-.2895848 2.357-.284 2.433783-.0213393 4.7677187.9662482 6.447 2.728.441369.4159238.9178026.7929889 1.424 1.127.3054621.1854209.6866415.1937947.9999517.0219672s.5111519-.4977517.5190001-.855c.0078481-.3572484-.1754897-.6915464-.4809518-.8769672-.403065-.273403-.7830074-.5794306-1.136-.915-2.0462862-2.0854499-4.8513662-3.2510755-7.773-3.23-.9653028-.0060845-1.927427.1111985-2.863.349-.3456545.0903882-.6168308.3583148-.7113796.7028544-.0945487.3445397.0018943.7133486.253.9675.2511057.2541515.6187251.3550338.9643796.2646456z"/><path id="Shape" d="m28.253 9.284c.7704595-.19415335 1.5624736-.28958482 2.357-.284 1.0375324-.01433567 2.069424.15493788 3.048.5.5153851.17637522 1.0771292-.09219699 1.2634616-.6040664.1863325-.5118694-.0713003-1.07871395-.5794616-1.2749336-1.1982906-.42295984-2.4613118-.63312494-3.732-.621-.9653028-.00608455-1.927427.11119849-2.863.349-.5343355.13972804-.854228.6861645-.7145 1.2205s.6861645.85422804 1.2205.7145z"/><path id="Shape" d="m38.482 12.855c.3058606.1961445.6940468.2109498 1.013959.0386721.3199121-.1722777.5212043-.5045264.5257837-.8678477.0045795-.3633214-.1882744-.7005381-.5037427-.8808244-.3045176-.2002324-.5924451-.4246218-.861-.671-.2627446-.2683557-.6536967-.3668679-1.0122343-.2550632s-.6242004.4150727-.6878413.7852069.0854719.7447188.3860756.9698563c.3528479.3267935.7340107.6216174 1.139.881z"/><path id="Shape" d="m14 28c-.5522847 0-1 .4477153-1 1v4c0 .5522847.4477153 1 1 1s1-.4477153 1-1v-4c0-.5522847-.4477153-1-1-1z"/><path id="Shape" d="m14 40c-.5522847 0-1 .4477153-1 1v2c0 .5522847.4477153 1 1 1s1-.4477153 1-1v-2c0-.5522847-.4477153-1-1-1z"/></g></g></svg>